<?xml version="1.0"?><svg width="1357" height="630" xmlns="http://www.w3.org/2000/svg">
 <g>
  <title>Layer 1</title>
  <path stroke-linecap="round" stroke-linejoin="round" d="m-2.230774,318.538452l0,-314.999991l678.500061,0l678.5,0l0,314.999991l0,315l-678.5,0l-678.500061,0l0,-315zm499,-267.999992l1,0.5l0.200012,0.299992l0.299988,0.200008l0.299988,0.200008l0.200012,0.299992l0.200012,0.299992l0.299988,0.200008l0.299988,0.200008l0.200012,0.299992l0.200012,0.299992l0.299988,0.200008l0.299988,0.200008l0.200012,0.299992l-1.5,0.5l-1.5,0.5l-1,0l-1,0l-1,-0.5l-1,-0.5l-0.200012,-0.299992q-0.299988,-0.200008 -2,-1.400017l-1.799988,-1.299992l-1.5,0l-1.5,0l-0.200012,0.299992l-0.299988,0.200008l-0.299988,0.200008l-0.200012,0.299992l0.200012,0.299992l0.299988,0.200008l0.299988,0.200008l0.200012,0.299992l0.200012,0.299992l0.299988,0.200008l0.299988,0.200008l0.200012,0.299992l-1.5,0.5l-1.5,0.5l-0.200012,0.299992l-0.299988,0.200008l-0.299988,0.200008l-0.200012,0.299992l0.200012,0.299992l0.299988,0.200008l0.299988,0.200008l0.200012,0.299992l2,0q2,0 4,0l2,0l0.200012,0.299992l0.299988,0.200008l0.299988,0.200008l0.200012,0.299992l0.200012,0.299992l0.299988,0.200008l0.299988,0.200008l0.200012,0.299992l-2,0.5l-2,0.5l-3,0.5q-3,0.500004 -5,1.000004q-2,0.5 -9,1q-7,0.5 -13,4.000004q-6,3.5 -13.5,5.5q-7.5,2 -11.5,4q-4,2 -9.5,9.5q-5.5,7.5 -9.5,8.5q-4,1 -7,-0.5q-3,-1.5 -5.799988,-4.200012q-2.700012,-2.799988 -2.700012,-11.299988q0,-8.5 5.5,-13q5.5,-4.500008 5.5,-9.000008q0,-4.5 -2.299988,-5.5q-2.200012,-1 -2.400024,-4q-0.299988,-3 -3.599976,-7.200008q-3.200012,-4.299992 -12.200012,-4.799992l-9,-0.5l-2,-0.5l-2,-0.5l-1,-0.299988l-1,-0.200012l0.200012,-1l0.299988,-1l0,-1l0,-0.999998l-0.299988,-0.20001l-0.200012,-0.29999l2.5,-0.5l2.5,-0.5l8.5,-1.5q8.5,-1.5 15.5,-4.5q7,-3 28,-3.5q21,-0.5 35,-2q14,-1.5 27,-1.5q13,0 18.5,2q5.5,2 11.700012,2.29999q6.299988,0.20001 2.599976,1.400021q-3.799988,1.29999 -7.599976,2.599979q-3.700012,1.20001 -5.700012,3.70001q-2,2.5 -2,4.499998q0,2 -2.5,5q-2.5,3 -2.799988,4q-0.200012,1 -6.200012,3.200008q-6,2.299992 -9,2.799992q-3,0.5 0,2.5q3,2 4,2.5zm567.200012,119.20002l-0.199951,0.299988l-1,0.5l-1,0.5l-1,0l-1,0l-1.5,-0.5l-1.5,-0.5l-1,0l-1,0l-0.199951,0.299988l-0.300049,0.200012l-0.300049,1l-0.199951,1l0,1q0,1 -1,1q-1,0 -0.800049,3.5q0.300049,3.5 -2,5.299988q-2.199951,1.700012 -2.399902,3q-0.300049,1.200012 6.399902,5.700012q6.800049,4.5 8.300049,9q1.5,4.5 -3,5.700012q-4.5,1.299988 -7.300049,-4q-2.699951,-5.200012 -7,-7.400024q-4.199951,-2.299988 -4.399902,-4.599976q-0.300049,-2.200012 -3,-4q-2.800049,-1.700012 -7.300049,-0.400024q-4.5,1.200012 -5.300049,-1.799988q-0.699951,-3 -2,-3.799988q-1.199951,-0.700012 -5.199951,2.799988l-4,3.5l-1,0.5l-1,0.5l-0.200073,0.299988l-0.299927,0.200012l0,1l0,1l0.299927,0.200012l0.200073,0.299988l0.199951,0.299988l0.300049,0.200012l0.299927,0.200012l0.200073,0.299988l0.199951,0.299988l0.300049,0.200012l0.299927,0.200012l0.200073,0.299988l1,0.5l1,0.5l3,1.5q3,1.5 4,0.5q1,-1 2.5,-1l1.5,0l2,0.5l2,0.5l0.199951,0.299988l0.300049,0.200012l0.300049,1l0.199951,1l-1,0.200012l-1,0.299988l-0.199951,0.299988q-0.300049,0.200012 -1.600098,1q-1.199951,0.700012 -2.399902,4.400024q-1.300049,3.799988 1,4.799988q2.199951,1 4,5q1.699951,4 5,6q3.199951,2 3.699951,4q0.5,2 -1,2.799988q-1.5,0.700012 1.300049,2q2.699951,1.200012 0.199951,11.700012q-2.5,10.5 -5.800049,14.700012q-3.199951,4.299973 -11.199951,6.299973q-8,2 -14,5.700012q-6,3.799988 -6.200073,2.299988q-0.299927,-1.5 -1.599976,-2.299988q-1.199951,-0.700012 -5.199951,0.299988l-4,1l-0.200073,0.299988l-0.299927,0.200012l-0.300049,0.200012l-0.199951,0.299988l-0.200073,0.299988l-0.299927,0.200012l-0.300049,0.200012l-0.199951,0.299988l-0.200073,0.299988l-0.299927,0.200012l-0.300049,0.200012l-0.199951,0.299988l-0.200073,0.299988l-0.299927,0.200012l-0.5,1.5l-0.5,1.5l0,1.5l0,1.5l3.299927,4.200012q3.200073,4.299988 6.400024,7.599976q3.300049,3.200012 5.800049,9.700012q2.5,6.5 1.799927,10.299988q-0.799927,3.700012 -4.799927,6q-4,2.200012 -4.800049,3.700012q-0.699951,1.5 -1,2.5l-0.199951,1l-1,0.200012l-1,0.299988l-1.5,0.299988l-1.5,0.200012l0.199951,-1.5q0.300049,-1.5 0.300049,-4.5l0,-3l-0.300049,0.200012l-0.199951,0.299988l-0.200073,0.299988l-0.299927,0.200012l-0.300049,0.200012l-0.199951,0.299988l-1,0.5q-1,0.5 -2,0.799988l-1,0.200012l-0.200073,-1q-0.299927,-1 -2,-3.200012q-1.799927,-2.299988 -1.799927,-4q0,-1.799988 -2,-1.599976q-2,0.299988 -5,-2.200012l-3,-2.5l-1.5,0l-1.5,0l-0.200073,0.299988l-0.299927,0.200012l-0.300049,0.200012l-0.199951,0.299988l-0.200073,0.299988l-0.299927,0.200012l-0.5,0.5q-0.5,0.5 -1,4.5l-0.5,4l-0.5,-3.5l-0.5,-3.5l-0.300049,-0.200012l-0.199951,-0.299988l-0.200073,-0.299988l-0.299927,-0.200012l-0.5,-1q-0.5,-1 -2.800049,-8.5l-2.199951,-7.5l-1,-0.200012l-1,-0.299988l-1,0q-1,0 -1.800049,0.700012q-0.699951,0.799988 -3,2l-2.199951,1.299988l-1,-0.299988l-1,-0.200012l-0.200073,-1q-0.299927,-1 -0.299927,-3.5q0,-2.5 -2.5,-7.5q-2.5,-5 -5.800049,-6.5q-3.199951,-1.5 -4.400024,-4.5q-1.299927,-3 -3,-4.799988q-1.799927,-1.700012 -9.299927,0.299988q-7.5,2 -8.300049,3.299988q-0.699951,1.200012 -0.400024,3.200012q0.200073,2 -2.799927,3.200012q-3,1.299988 -4.5,4q-1.5,2.799988 -2.5,3q-1,0.299988 -3.200073,2.599976q-2.299927,2.200012 -6.799927,6.200012q-4.5,4 -4.5,8q0,4 -1,11.5q-1,7.5 -2,9.5l-1,2l-0.300049,0.200012l-0.199951,0.299988l-0.200073,0.299988l-0.299927,0.200012l-0.300049,0.200012l-0.199951,0.299988l-0.200073,0.299988l-0.299927,0.200012l-0.5,1l-0.5,1l-0.300049,0.200012l-0.199951,0.299988l-0.200073,0.299988l-0.299927,0.200012l-0.300049,0.200012l-0.199951,0.299988l-1,0l-1,0l-1,-0.5l-1,-0.5l-1,-0.299988l-1,-0.200012l-0.200073,-2q-0.299927,-2 -8.799927,-22q-8.5,-20 -9,-26.5l-0.5,-6.5l-0.5,-1.5l-0.5,-1.5l-0.300049,-0.200012l-0.199951,-0.299988l-1,0l-1,0l-0.200073,0.299988l-0.299927,0.200012l0,1q0,1 -0.300049,1.799988q-0.199951,0.700012 -3.199951,1.200012l-3,0.5l-1,-0.5l-1,-0.5l-0.200073,-0.299988l-0.299927,-0.200012l-0.300049,-0.200012l-0.199951,-0.299988l-0.200073,-0.299988l-0.299927,-0.200012l-0.5,-1l-0.5,-1l-0.300049,-0.200012l-0.199951,-0.299988l1.5,-0.5q1.5,-0.5 1.699951,-1.799988q0.300049,-1.200012 -2.199951,-1.700012l-2.5,-0.5l-0.300049,-0.200012l-0.199951,-0.299988l0,-0.299988l0,-0.200012l-0.5,-0.200012q-0.5,-0.299988 -3,-1.599976q-2.5,-1.200012 -2.700073,-2.199997q-0.299927,-1 -2,-2.799988q-1.799927,-1.700012 -11.299927,-2.200012q-9.5,-0.5 -11,0q-1.5,0.5 -8.5,-0.5q-7,-1 -9,-3.5q-2,-2.5 -8,-2.5q-6,0 -10,-2q-4,-2 -6.200073,-4.700012q-2.299927,-2.799988 -4.599976,-5.599976l-2.199951,-2.700012l-1,-0.5l-1,-0.5l-1,0l-1,0l-0.200073,0.299988l-0.299927,0.200012l-0.300049,0.200012l-0.199951,0.299988l-1.5,0.5l-1.5,0.5l0.199951,0.299988l0.300049,0.200012l0,0.5l0,0.5l-0.300049,0l-0.199951,0l0.199951,1l0.300049,1l0.299927,0.200012l0.200073,0.299988l-1,0.5l-1,0.5l1.799927,0.700012q1.700073,0.799988 5.400024,8q3.800049,7.299988 6,8.599976q2.300049,1.200012 3,2q0.800049,0.700012 6.300049,0.700012q5.5,0 8,-2.5q2.5,-2.5 2.699951,-2.799988l0.300049,-0.200012l0.5,-1l0.5,-1l0.299927,-0.200012l0.200073,-0.299988l0.199951,-0.299988l0.300049,-0.200012l0.5,1l0.5,1l0.299927,3.5q0.200073,3.5 5.400024,6.499985q5.300049,3 5.599976,3.200012q0.200073,0.299988 1.200073,0.599976l1,0.200012l0.199951,1l0.300049,1l0,0.5l0,0.5l-0.5,1q-0.5,1 -1.5,2q-1,1 -3.5,5q-2.5,4 -6.200073,7.799988q-3.799927,3.700012 -9.299927,6.200012q-5.5,2.5 -7,4.5q-1.5,2 -11.5,7q-10,5 -16,6.5l-6,1.5l-0.200073,-0.299988l-0.299927,-0.200012l-0.5,-1q-0.5,-1 -2.5,-8.5q-2,-7.5 -5,-12q-3,-4.5 -5.300049,-6.700012q-2.199951,-2.299988 -5,-8.599976q-2.699951,-6.200012 -9.400024,-15.400009q-6.799927,-9.299988 -8.799927,-15q-2,-5.799988 -3,-5.799988q-1,0 -1.200073,-1.5l-0.299927,-1.5l-0.5,-1l-0.5,-1l-0.5,-1l-0.5,-1l-0.300049,-1.5l-0.199951,-1.5l1,0l1,0l0.199951,-1.5l0.300049,-1.5l0.5,-2.5q0.5,-2.5 1.199951,-6q0.800049,-3.5 1.800049,-3.299988q1,0.299988 1.5,-0.400024q0.5,-0.799988 -1,-0.799988q-1.5,0 -1.300049,-2.5l0.300049,-2.5l0,-1.5l0,-1.5l-0.300049,-0.200012l-0.199951,-0.299988l-2.5,0q-2.5,0 -3.5,0.5q-1,0.5 -5,0.5q-4,0 -11.5,-0.5q-7.5,-0.5 -9.700073,-3.200012l-2.299927,-2.799988l-0.5,-2.5l-0.5,-2.5l-0.300049,-0.200012l-0.199951,-0.299988l-0.200073,-0.299988l-0.299927,-0.200012l-0.300049,-0.200012l-0.199951,-0.299988l-1,-0.299988l-1,-0.200012l0,-1l0,-1l1,-0.200012l1,-0.299988l3.799927,-0.700012q3.700073,-0.799988 4.400024,-2.299988q0.800049,-1.5 5.800049,-2.299988q5,-0.700012 6.5,-1.700012q1.5,-1 8.5,0q7,1 11,2.5q4,1.5 6.5,1.5l2.5,0l2,-0.5l2,-0.5l0.199951,-0.299988l0.300049,-0.200012l0.5,-1l0.5,-1l0.5,-1l0.5,-1l0,-0.5l0,-0.5l-0.5,-1.5l-0.5,-1.5l-0.300049,-0.200012l-0.199951,-0.299988l-1,-0.5q-1,-0.5 -2.5,-1.200012l-1.5,-0.799988l-1,0q-1,0 -1,-1q0,-1 -4.5,-3.200012q-4.5,-2.299988 -3,-6.299988l1.5,-4l0.199951,-0.299988l0.300049,-0.200012l0,-0.5l0,-0.5l-0.5,-1l-0.5,-1l-0.300049,0.200012l-0.199951,0.299988l-1.5,0.5l-1.5,0.5l-1,0.5l-1,0.5l-1,0.5l-1,0.5l-2.800049,1.700012q-2.699951,1.799988 -2,2.599976q0.800049,0.700012 2.300049,1.200012l1.5,0.5l-0.200073,0.299988l-0.299927,0.200012l-0.300049,0.200012l-0.199951,0.299988l-1,0.5l-1,0.5l-1,0.5l-1,0.5l-1,0l-1,0l-1,-0.5q-1,-0.5 -1.800049,-1.200012q-0.699951,-0.799988 -0.199951,-2.299988q0.5,-1.5 -1.200073,-2q-1.799927,-0.5 -2,-1.5l-0.299927,-1l-0.300049,-0.200012l-0.199951,-0.299988l-1,0l-1,0l-1,0.5l-1,0.5l-1,0.5l-1,0.5l-0.200073,0.299988l-0.299927,0.200012l-0.300049,0.200012l-0.199951,0.299988l-0.200073,0.299988q-0.299927,0.200012 -1.299927,1.700012q-1,1.5 -3.700073,8.5q-2.799927,7 -4.299927,7.200012q-1.5,0.299988 1.5,1.599976l3,1.200012l0,1l0,1l-1,0.200012l-1,0.299988l-3,0q-3,0 -3.5,0q-0.5,0 -2,-0.5q-1.5,-0.5 -6.700073,2.200012q-5.299927,2.799988 -4.599976,4.599976q0.800049,1.700012 1.599976,5.400024l0.700073,3.799988l-0.300049,1.5l-0.199951,1.5l-1.5,-0.200012l-1.5,-0.299988l-0.200073,-0.299988l-0.299927,-0.200012l-0.300049,-0.200012l-0.199951,-0.299988l-0.200073,-0.299988l-0.299927,-0.200012l-0.300049,-0.200012l-0.199951,-0.299988l-0.200073,-0.299988l-0.299927,-0.200012l-0.300049,-1.5q-0.199951,-1.5 1.300049,-1.700012q1.5,-0.299988 1.699951,-1q0.300049,-0.799988 -5,-2.799988q-5.199951,-2 -6.000061,-7.5q-0.699951,-5.5 -2,-6q-1.199951,-0.5 -1.199951,-1.5q0,-1 -4,-2.200012q-4,-1.299988 -5,-2.299988q-1,-1 -5,-3.5q-4,-2.5 -4.5,-3.799988l-0.5,-1.200012l-1,0l-1,0l0,-1l0,-1l-1,0.200012l-1,0.299988l-1,0.5l-1,0.5l-0.200073,0.299988l-0.299927,0.200012l-0.300049,0.200012l-0.199951,0.299988l-1,0.5l-1,0.5l1,0.5l1,0.5l0.199951,0.299988l0.300049,0.200012l0.5,1l0.5,1l0.299927,0.200012l0.200073,0.299988l7,6q7,6 8,6.5q1,0.5 2,1l1,0.5l1,0.5l1,0.5l1,0.299988l1,0.200012l0,1l0,1l-1,-0.200012l-1,-0.299988l-2,0l-2,0l-0.200073,0.299988l-0.299927,0.200012l-0.300049,0.200012l-0.199951,0.299988l0.199951,0.299988l0.300049,0.200012l0.5,1l0.5,1l0,1.5l0,1.5l-0.300049,0.200012l-0.199951,0.299988l-0.200073,0.299988l-0.299927,0.200012l-0.300049,0.200012l-0.199951,0.299988l-1,0.299988l-1,0.200012l0.199951,-1.5l0.300049,-1.5l0,-1q0,-1 -2,-3.5q-2,-2.5 -7.300049,-4.299988q-5.199951,-1.700012 -8.400024,-6q-3.299927,-4.200012 -5.599976,-7l-2.199951,-2.700012l-1,0q-1,0 -2,0.299988q-1,0.200012 -1.800049,2.200012q-0.699951,2 -2.400024,2.200012q-1.799927,0.299988 -2.599976,-1q-0.699951,-1.200012 -1,0.299988q-0.199951,1.5 -5.199951,1.299988q-5,-0.299988 -6.800049,1q-1.699951,1.200012 -1.199951,3.200012q0.5,2 -4.5,5q-5,3 -7,8q-2,5 -4.299988,7.200012q-2.200012,2.299988 -9.700012,4.299988q-7.5,2 -11,0.5q-3.5,-1.5 -6.5,-1.799988l-3,-0.200012l0.200012,-6.5q0.299988,-6.5 1,-11.700012q0.799988,-5.299988 1,-7q0.299988,-1.799988 1,-2.599976q0.799988,-0.700012 6.799988,-0.200012q6,0.5 12,0.799988l6,0.200012l0.200012,-1l0.299988,-1l0.299988,-0.200012l0.200012,-0.299988l0.200012,-0.299988l0.299988,-0.200012l0.5,-2.5l0.5,-2.5l0,-2.5q0,-2.5 -0.700012,-5q-0.799988,-2.5 -4.299988,-3.700012l-3.5,-1.299988l-0.200012,-0.299988l-0.299988,-0.200012l-0.299988,-0.200012l-0.200012,-0.299988l-0.200012,-0.299988l-0.299988,-0.200012l-0.299988,-0.200012l-0.200012,-0.299988l0.200012,-0.299988l0.299988,-0.200012l0.299988,-0.200012l0.200012,-0.299988l2,0l2,0l4.5,-1.5q4.5,-1.5 8.5,-3.5q4,-2 6,-4q2,-2 3.799927,-2.700012q1.700073,-0.799988 2,-1.799988q0.200073,-1 3.400024,-3q3.300049,-2 3.599976,-3q0.200073,-1 5.200073,-1.799988q5,-0.700012 6.5,-2.700012q1.5,-2 0.5,-2.299988q-1,-0.200012 -1.200073,-2.200012q-0.299927,-2 -0.299927,-3.5l0,-1.5l0.5,-1l0.5,-1l0.299927,-0.200012l0.200073,-0.299988l1,-0.5l1,-0.5l1,-0.299988l1,-0.200012l-0.200073,2l-0.299927,2l-0.300049,3.200012q-0.199951,3.299988 1.800049,4.799988q2,1.5 7,1.5q5,0 7,0.5q2,0.5 7.5,-1q5.5,-1.5 8,-1.5q2.5,0 4.699951,-1.299988q2.30011,-1.200012 3.000061,-6.200012q0.800049,-5 3.800049,-4.200012q3,0.700012 4,0.700012l1,0l0.199951,-0.299988l0.300049,-0.200012l0.299927,-0.200012l0.200073,-0.299988l0.199951,-0.299988l0.300049,-0.200012l0,-0.5q0,-0.5 -1.5,-3l-1.5,-2.5l0.299927,-0.200012l0.200073,-0.299988l0.199951,-0.299988l0.300049,-0.200012l0.299927,-0.200012l0.200073,-0.299988l3.5,0q3.5,0 5.5,0l2,0l1.5,-0.5l1.5,-0.5l1,-0.5l1,-0.5l0.199951,-0.299988l0.300049,-0.200012l0,-0.5l0,-0.5l-0.300049,-0.200012l-0.199951,-0.299988l-2.5,-0.5l-2.5,-0.5l-2,0q-2,0 -8,0l-6,0l-1,-0.5l-1,-0.5l-1,-0.299988l-1,-0.200012l-0.200073,-1l-0.299927,-1l0.699951,-3.200012q0.800049,-3.299988 3,-6q2.300049,-2.799988 2.800049,-4.299988l0.5,-1.5l0,-1l0,-1l-0.300049,-0.200012l-0.199951,-0.299988l-0.200073,-0.299988l-0.299927,-0.200012l-0.300049,-0.200012l-0.199951,-0.299988l-0.200073,-0.299988l-0.299927,-0.200012l-0.5,-1.5l-0.5,-1.5l-0.5,1.5l-0.5,1.5l-0.300049,0.200012l-0.199951,0.299988l-1,0.5l-1,0.5l-0.200073,0.299988l-0.299927,0.200012l-0.300049,0.200012q-0.199951,0.299988 -1.000061,1.599976q-0.699951,1.200012 -5,4.400024q-4.199951,3.299988 -6.400024,6l-2.299927,2.799988l1.299927,2.799988q1.200073,2.700012 2.200073,3.200012q1,0.5 2,0.799988l1,0.200012l-0.200073,1l-0.299927,1l-0.300049,1q-0.199951,1 -2.699951,2.200012q-2.5,1.299988 -3.700073,4.599976q-1.299927,3.200012 -3.299927,5.200012l-2,2l-0.300049,0.200012l-0.199951,0.299988l-1,0.5l-1,0.5l-1.5,0l-1.5,0l-0.200073,-0.299988l-0.299927,-0.200012l-0.300049,-0.200012l-0.199951,-0.299988l-0.200073,-0.299988q-0.299927,-0.200012 -0.799927,-1.200012q-0.5,-1 -3,-6q-2.5,-5 -5,-5q-2.5,0 -7.200073,0.799988l-4.799927,0.700012l-0.200073,-0.299988l-0.299927,-0.200012l-0.300049,-0.200012l-0.199951,-0.299988l-0.200073,-0.299988l-0.299927,-0.200012l-0.300049,-0.200012l-0.199951,-0.299988l-0.200073,-0.299988l-0.299927,-0.200012l-0.5,-3l-0.5,-3l0,-2l0,-2l0.299927,-0.200012l0.200073,-0.299988l7.799927,-4.299988q7.700073,-4.200012 10.400024,-5.700012q2.800049,-1.5 4.300049,-5q1.5,-3.5 2.699951,-4q1.300049,-0.5 1.599976,-1.5q0.200073,-1 3.700073,-4.200012q3.5,-3.299992 13.5,-6.799995q10.000061,-3.5 19.500061,-3q9.5,0.5 10,1.799992q0.5,1.200008 3.5,1.400017q3,0.299992 6,1.299992q3,1.000004 10.5,2.500004q7.5,1.500004 9,2.000004l1.5,0.5l1.5,0.5l1.5,0.5l1,0.299988l1,0.200012l0.199951,1l0.300049,1l0.299927,0.200012l0.200073,0.299988l-1,0.5l-1,0.5l-1,0.5l-1,0.5l-4.5,0q-4.5,0 -8,-1l-3.5,-1l-3,0l-3,0l-0.200073,0.299988l-0.299927,0.200012l-0.300049,0.200012l-0.199951,0.299988l0.199951,0.299988l0.300049,0.200012l0.299927,0.200012l0.200073,0.299988l1,0.5l1,0.5l1,0.5l1,0.5l0.199951,0.299988l0.300049,0.200012l0.5,1l0.5,1l0.5,1l0.5,1l0.299927,0.200012l0.200073,0.299988l0.199951,0.299988l0.300049,0.200012l1.299927,0.799988q1.200073,0.700012 2.200073,1.200012l1,0.5l1,0.5l1,0.5l1,0l1,0l1.799927,-1.299988q1.700073,-1.200012 0,-2.400024q-1.799927,-1.299988 2.700073,-1.299988q4.5,0 4.5,-1.700012q0,-1.799988 5.199951,-3.299988q5.300049,-1.5 4.800049,-3.5q-0.5,-2 -0.800049,-3l-0.199951,-1l2.799927,0.5q2.700073,0.5 3,1.700012q0.200073,1.299988 3.700073,1.299988q3.5,0 9,-2.5q5.5,-2.500004 17,-2.500004q11.5,0 13.5,-1.5q2,-1.500004 8.5,-0.5q6.5,1 8.5,1.5l2,0.5l1,0.5l1,0.500004l0.199951,0.299988l0.300049,0.200012l0.299927,0.200005l0.200073,0.299995l0.199951,0.299988l0.300049,0.200012l0.299927,-0.200012l0.200073,-0.299988l1,-0.5l1,-0.5l0.199951,-0.299999l0.300049,-0.200005l0,-1l0,-1l-0.300049,-0.200012l-0.199951,-0.299988l-1,-0.500004l-1,-0.5l-1,-0.5q-1,-0.5 -3,-1.200008q-2,-0.799992 -2.200073,-1.799992l-0.299927,-1l-0.5,-1l-0.5,-1l0,-1l0,-1l0.299927,-0.200008l0.200073,-0.299992l0.199951,-0.299992l0.300049,-0.200008l0.299927,-0.200008l0.200073,-0.299992l0.199951,-0.299992l0.300049,-0.200008l0.299927,-0.200008l0.200073,-0.299992l1.5,-0.5l1.5,-0.5l2,0l2,0l1,0.5l1,0.5l0.199951,0.299992l0.300049,0.200008l5.5,7.5q5.5,7.500008 5.199951,8.70002q-0.199951,1.299988 -0.400024,1.599976l-0.299927,0.200012l-0.5,1l-0.5,1l-0.300049,0.200012l-0.199951,0.299988l-0.200073,0.299988l-0.299927,0.200012l-0.300049,0.200012l-0.199951,0.299988l0.199951,0.299988l0.300049,0.200012l0.299927,0.200012l0.200073,0.299988l1.5,0l1.5,0l1,-0.5l1,-0.5l1,-0.5l1,-0.5l0.199951,-0.299988l0.300049,-0.200012l0.5,-1.5l0.5,-1.5l0,-1.5l0,-1.500004l-0.5,-1q-0.5,-1 -4,-3.500004l-3.5,-2.5l-0.5,-1l-0.5,-1l-0.300049,-1.5l-0.199951,-1.5l2,0.200008l2,0.299992l4.5,-1.5q4.5,-1.5 8.5,-4q4,-2.5 8.5,-3q4.5,-0.5 4,-2.799992q-0.5,-2.200008 10.5,-3.400017q11,-1.299992 14,-1.799992q3,-0.5 5.5,-2.5q2.5,-2 7,-1.5q4.5,0.5 6,1.5q1.5,1 12,1.5q10.5,0.5 12.5,2.799992q2,2.200008 -3,5q-5,2.700008 -1,2.700008q4,0 9.5,0q5.5,0 14,0.5q8.5,0.5 22.5,1q14,0.5 21,4.5q7,4 12.5,3q5.5,-1 11,-1q5.5,0 6.699951,-1.299992q1.300049,-1.200008 0.599976,-2q-0.799927,-0.700008 8.200073,-0.700008q9,0 15.5,1.5q6.5,1.5 8.5,2.5q2,1 17.5,2q15.5,1 19.5,2.5q4,1.5 16.5,2q12.5,0.5 16.300049,1.200008q3.699951,0.799995 2.399902,-1q-1.199951,-1.700008 15.300049,0.299992q16.5,2.000004 24,4.000008q7.5,2 13.5,4q6,2 12,2.5q6,0.5 9.199951,3.799988q3.300049,3.200012 -1,3q-4.199951,-0.299988 -11.199951,-2.299988q-7,-2 -9,-1.5q-2,0.5 -0.5,2q1.5,1.5 -2.5,2q-4,0.5 5.5,4.200012q9.5,3.799988 9.5,4.799988q0,1 -5,1.799988q-5,0.700012 -6.800049,2.400024q-1.699951,1.799988 -2,2.799988q-0.199951,1 -2.199951,1.799988q-2,0.700012 -5,-0.299988q-3,-1 -9.5,2q-6.5,3 -4.5,6q2,3 6.199951,5.299988q4.300049,2.200012 6.600098,7q2.199951,4.700012 1,5.400024q-1.300049,0.799988 0,6.799988q1.199951,6 -1.800049,5.799988q-3,-0.299988 -7.5,-4.799988q-4.5,-4.5 -9.300049,-9.200012q-4.699951,-4.799988 -6.199951,-7.799988q-1.5,-3 1,-10.5q2.5,-7.5 0,-11q-2.5,-3.5 -4,-2.5q-1.5,1 -1.800049,3.200012q-0.199951,2.299988 -7.699951,0.799988q-7.5,-1.5 -8.300049,2.799988q-0.699951,4.200012 -0.399902,5.200012q0.199951,1 -4.300049,0.799988q-4.5,-0.299988 -16.5,-0.299988q-12,0 -15.199951,2.299988q-3.300049,2.200012 -5.800049,9.200012q-2.5,7 2.800049,9.200012q5.199951,2.299988 10.199951,2.299988q5,0 9.199951,4.299988q4.300049,4.200012 6,7q1.800049,2.700012 3.600098,4.400024q1.699951,1.799988 1.699951,11.799988q0,10 -2,14.5q-2,4.5 -2.300049,4.700012zm-714.400024,-47l0.200012,0.299988l1,0l1,0l1,-0.5q1,-0.5 4,-0.5l3,0l0.200012,0.299988l0.299988,0.200012l0.299988,0.200012l0.200012,0.299988l0.200012,0.299988l0.299988,0.200012l0.299988,0.200012l0.200012,0.299988l0.200012,0.299988l0.299988,0.200012l0,0.5l0,0.5l-0.5,1l-0.5,1l-0.299988,1l-0.200012,1l-1,0.200012l-1,0.299988l-0.200012,0.299988l-0.299988,0.200012l-0.299988,0.200012l-0.200012,0.299988l-1,0.5q-1,0.5 -8,3q-7,2.5 -16.5,3q-9.5,0.5 -16,3l-6.5,2.5l-1,0.5l-1,0.5l-1,0.5l-1,0.5l-1,0.5l-1,0.5l-0.200012,0.299988l-0.299988,0.200012l0,1l0,1l0.299988,0.200012l0.200012,0.299988l0.200012,0.299988l0.299988,0.200012l0.299988,-0.200012l0.200012,-0.299988l1,-0.5l1,-0.5l1,-0.5l1,-0.5l3.5,-1.5q3.5,-1.5 7.5,-1.5l4,0l-0.200012,0.299988l-0.299988,0.200012l-0.5,1l-0.5,1l-0.299988,1q-0.200012,1 -2,2q-1.700012,1 -1.700012,2q0,1 0.5,2l0.5,1l0.299988,1l0.200012,1l2,0.799988q2,0.700012 4.5,0.700012l2.5,0l1.5,0l1.5,0l-0.200012,0.299988l-0.299988,0.200012l-0.299988,0.200012l-0.200012,0.299988l-0.200012,0.299988l-0.299988,0.200012l-0.299988,0.200012l-0.200012,0.299988l-1,0.5l-1,0.5l-1.5,0.5l-1.5,0.5l-2,0.5q-2,0.5 -3,1l-1,0.5l-1,0.5l-1,0.5l-1,0.5l-1,0.5l-1,0.5l-1,0.5l-0.200012,0.299988l-0.299988,0.200012l-0.299988,-0.200012l-0.200012,-0.299988l-1,-0.5l-1,-0.5l0.200012,-0.299988l0.299988,-0.200012l0.299988,-0.200012l0.200012,-0.299988l0.200012,-0.299988l0.299988,-0.200012l0.299988,-0.200012l0.200012,-0.299988l2,-1q2,-1 3.5,-1.5l1.5,-0.5l0.200012,-0.299988l0.299988,-0.200012l0,-0.5l0,-0.5l-0.299988,-0.200012l-0.200012,-0.299988l-2,0l-2,0l-2,0.5l-2,0.5l-1,0.5q-1,0.5 -1.5,0.5q-0.5,0 -9,3.700012q-8.5,3.799988 -9,6.799988q-0.5,3 -7,5.200012q-6.5,2.299988 -8.700012,4.599976q-2.299988,2.200012 -5.599976,4q-3.200012,1.700012 -5,4.400024q-1.700012,2.799988 -3,2q-1.200012,-0.700012 -2,2.599976q-0.700012,3.200012 -1.700012,6.700012q-1,3.5 -10.299988,9.700012q-9.200012,6.299988 -12.400024,9.599976q-3.299988,3.200012 -3.299988,14.200012l0,11l-0.5,1l-0.5,1l-0.5,1l-0.5,1l-0.299988,0.200012l-0.200012,0.299988l-0.5,0l-0.5,0l-1,-0.299988l-1,-0.200012l-0.200012,-1l-0.299988,-1l-0.5,-1.5l-0.5,-1.5l-0.5,-1.5q-0.5,-1.5 -0.5,-6q0,-4.5 -1,-5.5q-1,-1 -3.299988,-1.799988q-2.200012,-0.700012 -7.200012,-2.200012q-5,-1.5 -9,-0.5q-4,1 -5,3.299988q-1,2.200012 -5.5,1q-4.5,-1.299988 -8,-1.799988q-3.5,-0.5 -12,3.799988q-8.5,4.200012 -9.700012,8.200012q-1.299988,4 -2.599976,4.799988q-1.200012,0.700012 -0.200012,1q1,0.200012 -1.200012,6.700012q-2.299988,6.499985 -1.299988,12.499985q1,6 3.299988,9.799988q2.200012,3.700012 6.200012,4.700012q4,1 9.5,-1q5.5,-2 7.5,-6.299988q2,-4.200012 5,-5l3,-0.700012l2.5,0l2.5,0l1,0.299988l1,0.200012l-0.200012,1l-0.299988,1l-0.5,1l-0.5,1l-0.5,1.5l-0.5,1.5l-0.5,1l-0.5,1l-0.5,1q-0.5,1 -0.799988,0.799988q-0.200012,-0.299988 -1.200012,1.400024q-1,1.799988 -2,1.799988q-1,0 -1.200012,1.5q-0.299988,1.5 -0.599976,0q-0.200012,-1.5 -1.700012,-1.299988q-1.5,0.299988 -0.5,0.599976q1,0.200012 1,1.200012q0,1 -1,1.200012q-1,0.299988 -2.799988,3q-1.700012,2.799988 -4.400024,3.799988q-2.799988,1 -3.799988,2.200012q-1,1.299988 -1.799988,2q-0.700012,0.799988 -1.200012,-0.200012q-0.5,-1 -3.799988,-3.200012q-3.200012,-2.299988 -8.700012,-1.299988q-5.5,1 -16,-4q-10.5,-5 -15.299988,-8.700012q-4.700012,-3.799988 -5.200012,-10.799988q-0.5,-7 -4.200012,-12.200012q-3.799988,-5.299973 -5,-7.59996q-1.299988,-2.200012 -3.799988,-6.700012q-2.5,-4.5 -4.5,-11.5l-2,-7l-0.299988,-0.200012l-0.200012,-0.299988l-1,-0.5l-1,-0.5l-1.5,0l-1.5,0l-0.200012,0.299988l-0.299988,0.200012l-0.5,1l-0.5,1l0,1.5l0,1.5l0.5,1.5l0.5,1.5l2.5,5.5q2.5,5.5 3,8.5q0.5,3 1,5.5l0.5,2.5l0.5,1l0.5,1l0.5,1l0.5,0.999985l0.5,1l0.5,1l0.299988,0.200012l0.200012,0.299988l-1,0l-1,0l-0.200012,-0.299988l-0.299988,-0.200012l-0.299988,-0.200012l-0.200012,-0.299988l-0.200012,-0.299988l-0.299988,-0.200012l-0.299988,-0.200012l-0.200012,-0.299988l-0.200012,-0.299988l-0.299988,-0.200012l-0.5,-0.999985l-0.5,-1l-0.299988,-0.200012l-0.200012,-0.299988l-0.200012,-0.299988l-0.299988,-0.200012l-0.299988,-0.200012l-0.200012,-0.299988l-0.200012,-0.299988l-0.299988,-0.200012l0,-1.5q0,-1.5 0,-3q0,-1.5 -2.5,-3.5q-2.5,-2 -2.5,-5q0,-3 -1.5,-7q-1.5,-4 -1.799988,-9.5q-0.200012,-5.5 3.799988,-5.700012l4,-0.299988l-4.5,-0.299988q-4.5,-0.200012 -5.299988,-2.200012q-0.700012,-2 -4,-3.5q-3.200012,-1.5 -4.400024,-8q-1.299988,-6.5 -0.799988,-7.5q0.5,-1 -0.5,-3q-1,-2 0,-7q1,-5 3.5,-9q2.5,-4 6,-8.5q3.5,-4.5 7.200012,-12l3.799988,-7.5l2.200012,0.5q2.299988,0.5 2.599976,1.700012q0.200012,1.299988 2.400024,-1q2.299988,-2.200012 3,-3.400024q0.799988,-1.299988 50.299988,-1.799988l49.5,-0.5l-50,-0.299988q-50,-0.200012 -50.200012,-1.700012q-0.299988,-1.5 -4.299988,-6q-4,-4.5 -3,-6q1,-1.5 0.5,-3q-0.5,-1.5 0.200012,-5q0.799988,-3.5 1.799988,-3.5q1,0 0.799988,-1.5q-0.299988,-1.5 -0.299988,-4.5q0,-3 -1,-5.5q-1,-2.5 -6.700012,-5.700012q-5.799988,-3.299988 -15.299988,-5.799988q-9.5,-2.5 -14.5,-1q-4.999992,1.5 -8.999992,1.5q-4,0 -14,4q-10,4 -21.000008,8.5l-11,4.5l-1.5,0.5l-1.5,0.5l-2.5,0l-2.5,0l1,-0.5l1,-0.5l1,-0.5l1,-0.5l1.5,-0.5l1.5,-0.5l1.5,-0.5q1.5,-0.5 5.5,-2.5l4,-2l1,-0.5l1,-0.5l1,-0.5l1,-0.5l0.200012,-0.299988l0.299988,-0.200012l0.299988,-0.200012l0.200012,-0.299988l0.200012,-0.299988l0.299988,-0.200012l0.299988,-0.200012l0.200012,-0.299988l-0.200012,-0.299988l-0.299988,-0.200012l-0.299988,-0.200012l-0.200012,-0.299988l-1,0l-1,0l-1,0.5q-1,0.5 -2.5,0.5l-1.5,0l-1,-0.5l-1,-0.5l-1,-0.5l-1,-0.5l0.200012,-0.299988l0.299988,-0.200012l0.299988,-0.200012l0.200012,-0.299988l1,-0.5l1,-0.5l1,-0.5l1,-0.5l0.200012,-0.299988l0.299988,-0.200012l0.5,-1q0.5,-1 0.200012,-4q-0.200012,-3 1,-3.5q1.299988,-0.5 10.599976,-2.700012l9.20002,-2.299988l1,-0.5l1,-0.5l0.200012,-0.299988l0.299988,-0.200012l0.299988,-0.200012l0.200012,-0.299988l0.200012,-0.299988l0.299988,-0.200012l0.299988,-0.200012l0.200012,-0.299988l1,-0.5l1,-0.5l0.200012,-0.299988l0.299988,-0.200012l0.299988,-0.200012l0.200012,-0.299988l-0.200012,-0.299988l-0.299988,-0.200012l-0.299988,-0.200012l-0.200012,-0.299988l-1.5,0l-1.5,0l-1,0.5q-1,0.5 -5,0l-4,-0.5l-1,-0.5l-1,-0.5l0.200012,-0.299988l0.299988,-0.200012l0.299988,-0.200012l0.200012,-0.299988l1,-0.5l1,-0.5l1,-0.5l1,-0.5l7.5,-0.5q7.5,-0.5 8.5,-1l1,-0.5l1,-0.5l1,-0.5l0.200012,-0.299988q0.299988,-0.200012 -1.400024,-3.200012l-1.799988,-3.000004l1,-0.200012l1,-0.299988l17.499992,-4.000004q17.5,-4 27.5,-4q10,0 26.5,3q16.5,3.000004 25,2.5q8.5,-0.5 18,-2q9.5,-1.5 13.5,-0.5q4,1 10,1.5q6,0.5 11.5,2.000004q5.5,1.5 4.299988,2.799992q-1.299988,1.200012 6.200012,1.700012q7.5,0.5 9.200012,2.700012q1.799988,2.299988 4.299988,-0.200012q2.5,-2.5 7,-3.5q4.5,-1 11,0q6.5,1 9.5,1.5q3,0.5 5,1.5q2,1 8.200012,-2.299988q6.299988,-3.200016 6.299988,-5.20002q0,-2 -1,-3q-1,-1 3.299988,-3.200008q4.200012,-2.299992 6,-2q1.700012,0.200008 1.700012,4.200008q0,4 3,5.000004q3,1 2,3.500004q-1,2.5 1.299988,2.299988q2.200012,-0.299988 6.700012,-3.799992q4.5,-3.500004 9,-3.200012q4.5,0.200008 4,2.200012q-0.5,2.000004 -5,5.200016q-4.5,3.299988 -12,4.299988q-7.5,1 -12.5,1.5q-5,0.5 -3,2.5q2,2 -5.5,3.5q-7.5,1.5 -8.700012,1.799988q-1.299988,0.200012 -1.599976,2q-0.200012,1.700012 -10.200012,6.700012q-10,5 -12.200012,8.700012q-2.299988,3.799988 -1,4.299988q1.200012,0.5 2.200012,3.299988q1,2.700012 13.200012,7.400024q12.299988,4.799988 10.799988,10.299988q-1.5,5.5 -0.200012,7.700012q1.200012,2.299988 5,1q3.700012,-1.200012 6.400024,-7q2.799988,-5.700012 8.599976,-9q5.700012,-3.200012 7.200012,-5.200012q1.5,-2 2,-6.5q0.5,-4.5 3,-7q2.5,-2.5 3.799988,-5.5q1.200012,-3 6.200012,-3.799988q5,-0.700012 11,1.599976q6,2.200012 6.200012,7.200012q0.299988,5 2,6.200012q1.799988,1.299988 8.599976,-3q6.700012,-4.200012 7.700012,1.799988q1,6 0.5,7.5q-0.5,1.5 1.799988,5.299988q2.200012,3.700012 0.400024,5.400024q-1.700012,1.799988 -1.400024,2zm291.700073,94.299988l3.5,0l1,0.5l1,0.5l1,0.5l1,0.5l3,1.299988q3,1.200012 3,27.200012l0,25.999985l-1.5,0l-1.5,0l-0.200073,1.5q-0.299927,1.5 0,10l0.200073,8.5l-1.5,0.200012l-1.5,0.299988l1.5,0.299988l1.5,0.200012l0.199951,0l0.300049,0l0.299927,-10q0.200073,-10 1.700073,-10q1.5,0 1.5,-4.5q0,-4.5 19.5,-4.700012q19.5,-0.299988 22,-2.299988q2.5,-2 2.699951,-2.299988l0.300049,-0.200012l0.5,1l0.5,1l0.299927,0.200012l0.200073,0.299988l1.799927,2.299988q1.700073,2.200012 3.200073,8.200012q1.5,6 4.5,9.5q3,3.5 3.299927,5.5l0.200073,2l4.5,4.799988q4.5,4.700012 8.5,8.700012q4,4 3,4.5q-1,0.5 0.5,0.799988q1.5,0.200012 2.5,3.400024q1,3.299988 5,4.299988q4,1 12.5,-1q8.5,-2 9.5,-2.5l1,-0.5l1,-0.5l1,-0.5l0.199951,-0.299988l0.300049,-0.200012l0.5,2l0.5,2l0,2.5l0,2.5l-8.300049,15.200012q-8.199951,15.299988 -16,21.599976q-7.699951,6.200012 -10.400024,10.700012q-2.799927,4.5 -6.599976,8q-3.699951,3.5 -5.699951,7.5q-2,4 -2,11.5q0,7.5 2.5,12.5q2.5,5 2.5,15q0,10 -2.700073,13.799988q-2.799927,3.700012 -8,6.400024q-5.299927,2.799988 -9.799927,8.799988q-4.5,6 -3,12.5q1.5,6.5 -0.200073,9.299988q-1.799927,2.700012 -2.799927,3.200012l-1,0.5l-1,0.5l-1,0.5l-1,0.5l-1,0.5l-1,0.5l-1,0.5l0,0.299988l0,0.200012l-0.200073,0.5q-0.299927,0.5 -0.599976,0.5l-0.199951,0l-0.200073,1.5q-0.299927,1.5 0.200073,5q0.5,3.5 -0.800049,4.299988q-1.199951,0.700012 -8,9q-6.699951,8.199982 -13.400024,13q-6.799927,4.700012 -10.799927,4.700012q-4,0 -12,1q-8,1 -9.80011,-0.299988q-1.699951,-1.200012 -2.199951,-6.200012q-0.5,-5 -2.5,-8q-2,-3 -5.300049,-8.200012q-3.199951,-5.299988 -6,-18q-2.699951,-12.799988 -7,-22.299988l-4.199951,-9.5l-0.200073,0l-0.299927,0l0,-2l0,-2l0.299927,-0.200012l0.200073,-0.299988l-1,-0.299988l-1,-0.200012l0.199951,-3q0.300049,-3 1.300049,-6q1,-3 3.5,-8.5q2.5,-5.5 2.5,-9.5q0,-4 -0.5,-9.5q-0.5,-5.5 -2,-8l-1.5,-2.5l-0.5,-1q-0.5,-1 -1,-3l-0.5,-2l-0.300049,-2l-0.199951,-2l-0.5,-0.200012q-0.5,-0.299988 -0.5,-0.599976l0,-0.200012l-0.200073,-0.5q-0.299927,-0.5 -1.599976,-1q-1.199951,-0.5 -5,-6q-3.699951,-5.5 -3,-11q0.800049,-5.5 4.800049,-5.5q4,0 4,-2.5q0,-2.5 3,-2.299988l3,0.299988l0.199951,0.299988l0.300049,0.200012l0.299927,-0.200012l0.200073,-0.299988l1.5,-0.5l1.5,-0.5l-8.5,-0.299988q-8.5,-0.200012 -8.700073,-2.700012q-0.299927,-2.5 -2.599976,-4.5q-2.199951,-2 -2.400024,-3q-0.299927,-1 -6,-0.5q-5.799927,0.5 -6.799927,-2.700012q-1,-3.299988 -5.5,-4.799988q-4.5,-1.5 -5.299988,-6.200012l-0.700012,-4.799988l-0.299988,5q-0.200012,5 -1.200012,5.200012q-1,0.299988 -1.799988,-1q-0.700012,-1.200012 -1.200012,0.299988q-0.5,1.5 -1.799988,1.700012q-1.200012,0.299988 -8.700012,3q-7.5,2.799988 -7.700012,1.799988q-0.299988,-1 -7.599976,0.200012q-7.200012,1.299988 -12.200012,1.299988q-5,0 -11.5,-4.299988q-6.5,-4.200012 -7.299988,-5.700012q-0.700012,-1.5 -3.200012,-6.5q-2.5,-5 -8,-11q-5.5,-6 -6.799988,-8q-1.200012,-2 0.299988,-2.200012q1.5,-0.299988 -0.299988,-4q-1.700012,-3.799988 -0.200012,-6.799988q1.5,-3 2.5,-8.5q1,-5.5 -0.5,-10.5l-1.5,-5l-0.299988,-1l-0.200012,-1l8,0l8,0l-0.200012,-3l-0.299988,-3l-0.299988,2.5l-0.200012,2.5l-4.5,-0.200012l-4.5,-0.299988l-2,-0.299988l-2,-0.200012l0.200012,-1l0.299988,-1l0.299988,0.200012l0.200012,0.299988l0.200012,0.299988l0.299988,0.200012l0.299988,-0.200012l0.200012,-0.299988l1,-0.5l1,-0.5l-1.5,-0.5l-1.5,-0.5l0.200012,-0.299988l0.299988,-0.200012l6.700012,-10.799973q6.799988,-10.700012 9.299988,-11.200012q2.5,-0.5 1.299988,-1.200012q-1.299988,-0.799988 4.200012,-5.299988q5.5,-4.5 7.799988,-11.299988q2.200012,-6.700012 7,-10q4.700012,-3.200012 6.400024,-6q1.799988,-2.700012 9.299988,-1.200012q7.5,1.5 15,-2q7.5,-3.5 20.5,-4.5q13,-1 16.5,-1q3.5,0 4.299927,3.700012q0.700073,3.799988 0.700073,6.799988q0,3 3.699951,5.200012q3.800049,2.299988 8.800049,3.599976q5,1.200012 6.5,4q1.5,2.700012 8.5,4.700012q7.000061,2 8.799988,0.299988q1.700073,-1.799988 2.400024,-5.599976q0.800049,-3.700012 4.300049,-3.700012zm-296.500061,148.499985l1,-0.5l1.5,0l1.5,0l1,0.299988l1,0.200012l0.200012,1l0.299988,1l0.299988,0.200012l0.200012,0.299988l-1.5,1.5q-1.5,1.5 -1.700012,1.799988l-0.299988,0.200012l-0.299988,0.200012l-0.200012,0.299988l-0.200012,0.299988l-0.299988,0.200012l-0.299988,0.200012l-0.200012,0.299988l0.200012,0.299988l0.299988,0.200012l0.299988,0.200012l0.200012,0.299988l1,0l1,0l1,-0.5l1,-0.5l0.200012,-0.299988l0.299988,-0.200012l2.299988,-1.799988q2.200012,-1.700012 6.700012,-0.200012q4.5,1.5 5.299988,3.200012q0.700012,1.799988 1,3.599976q0.200012,1.700012 2.200012,0.700012q2,-1 11.200012,0.299988q9.299988,1.200012 12.599976,4.400024q3.200012,3.299988 8.700012,5.799988q5.5,2.5 6.299988,6.200012q0.700012,3.799988 -1,8q-1.799988,4.299988 -8,13q-6.299988,8.799988 -6.799988,19.299988q-0.5,10.5 -3.799988,20.299988q-3.200012,9.700012 -5.200012,11.700012q-2,2 -6.5,2.5q-4.5,0.5 -11.5,5q-7,4.5 -7.200012,11.200012q-0.299988,6.799988 -1.799988,9.299988q-1.5,2.5 -3,7q-1.5,4.5 -3.799988,8.999969q-2.200012,4.500031 -3.200012,4.500031q-1,0 -2,2.200012q-1,2.299988 -2.5,3.299988q-1.5,1 -4,1l-2.5,0l-1,-0.5q-1,-0.5 -2.5,-1l-1.5,-0.5l-1,-0.5l-1,-0.5l-0.200012,-0.299988l-0.299988,-0.200012l-0.299988,0.200012l-0.200012,0.299988l-1,0.299988l-1,0.200012l0.200012,1l0.299988,1l0.299988,0.200012l0.200012,0.299988l1,0.5l1,0.5l1,0.299988q1,0.200012 2.200012,2.700012q1.299988,2.5 1.799988,4l0.5,1.5l0,1l0,1l-0.5,1l-0.5,1l-0.299988,1l-0.200012,1l-3,1.200012q-3,1.299988 -7.799988,2q-4.700012,0.799988 -4.700012,4.799988q0,4 -0.299988,5l-0.200012,1l-1,-0.200012q-1,-0.299988 -4,-1.299988l-3,-1l-0.200012,0.299988l-0.299988,0.200012l0,1l0,1l0.5,1l0.5,1l2.5,2.5q2.5,2.5 1.5,3.5q-1,1 -1.5,4q-0.5,3 -2,6q-1.5,3 1.5,6q3,3 3,6.5q0,3.5 -1.5,8.5q-1.5,5 -1.799988,6.200012q-0.200012,1.299988 -2.700012,1.799988l-2.5,0.5l3.5,0.5l3.5,0.5l-1,0.5l-1,0.5l-0.200012,0.299988l-0.299988,0.200012l-0.299988,0.200012l-0.200012,0.299988l-0.200012,0.299988l-0.299988,0.200012l-0.299988,0.200012l-0.200012,0.299988l-0.5,0l-0.5,0l-1,-0.5q-1,-0.5 -3.5,-0.200012q-2.5,0.200012 -3.299988,-1.799988q-0.700012,-2 -3,-3q-2.200012,-1 -6.400024,-10q-4.299988,-9 -7,-10.5q-2.799988,-1.5 -2.799988,-2.5q0,-1 2,-1.5q2,-0.5 2.200012,-2.5q0.299988,-2 -0.700012,-5q-1,-3 -1.5,-6q-0.5,-3 -3.5,-6q-3,-3 -4.5,-9q-1.5,-6 -2,-18.5q-0.5,-12.5 -2,-22q-1.5,-9.5 -1.5,-23q0,-13.5 -1,-21l-1,-7.5l-0.5,-1q-0.5,-1 -1.799988,-1.5q-1.200012,-0.5 -2.200012,-2.700012q-1,-2.299988 -10,-7.799988q-9,-5.5 -11.200012,-9.200012q-2.299988,-3.799988 -4.799988,-7.799988q-2.5,-4 -7.5,-14q-5,-10 -7.700012,-12.799988q-2.799988,-2.700012 -4,-7q-1.299988,-4.200012 1.400024,-8q2.799988,-3.700012 0.799988,-4.400024q-2,-0.799988 -2.200012,-1.799988q-0.299988,-1 1.400024,-6l1.799988,-5l0.200012,-0.5q0.299988,-0.5 0.599976,-0.5l0.200012,0l0.200012,-0.5q0.299988,-0.5 0.599976,-0.5l0.200012,0l0.200012,-0.5q0.299988,-0.5 0.599976,-0.5l0.200012,0l0,-1.5q0,-1.5 2.5,-3.700012q2.5,-2.299988 4.299988,-6.599976q1.700012,-4.200012 0.200012,-11.700012l-1.5,-7.5l0.5,-1l0.5,-1l0.299988,-0.200012l0.200012,-0.299988l-0.200012,-0.299988l-0.299988,-0.200012l-0.299988,-0.200012l-0.200012,-0.299988l-1,-0.5l-1,-0.5l-2.5,0q-2.5,0 -3.5,0.5q-1,0.5 -1,2q0,1.5 -1.5,2l-1.5,0.5l-1.5,-0.5l-1.5,-0.5l-0.200012,-0.299988l-0.299988,-0.200012l-0.299988,-0.200012l-0.200012,-0.299988l-1,-0.5l-1,-0.5l-0.200012,-0.299988l-0.299988,-0.200012l-0.299988,-1.5l-0.200012,-1.5l1.5,0.200012l1.5,0.299988l1,0.5l1,0.5l1,0l1,0l2.5,-1q2.5,-1 6,-0.5q3.5,0.5 6.5,1.5q3,1 5.200012,-1.299988q2.299988,-2.200012 4.599976,-5q2.200012,-2.700012 6.200012,-4.700012q4,-2 6.5,-3.299988q2.5,-1.200012 2.5,-0.200012q0,1 -0.799988,1.5q-0.700012,0.5 -0.700012,6q0,5.5 1.5,5q1.5,-0.5 2,-2q0.5,-1.5 0.200012,-3.700012q-0.200012,-2.299988 1.799988,-3.799988q2,-1.5 5.5,-0.799988q3.5,0.799988 4,2q0.5,1.299988 8,2.799988q7.5,1.5 11.5,2.5q4,1 10.200012,4.700012q6.299988,3.799988 9,7.599976q2.799988,3.700012 6.299988,5.200012q3.5,1.5 9.5,2q6,0.5 10,3.200012q4,2.799988 5.5,8.799988q1.5,6 2.5,6q1,0 -0.5,3.200012q-1.5,3.299988 -5,6.799988q-3.5,3.5 -1.5,3.5q2,0 4.5,-2.5q2.5,-2.5 3.5,-3zm752.000061,158.799988l-1,-0.299988l0.199951,-0.299988l0.300049,-0.200012l0.5,-1l0.5,-1l0.300049,-0.200012l0.199951,-0.299988l0.5,-0.5q0.5,-0.5 0.699951,-0.799988l0.300049,-0.200012l0.300049,-0.200012l0.199951,-0.299988l0.199951,-0.299988l0.300049,-0.200012l0.300049,-0.200012l0.199951,-0.299988l0.199951,-0.299988l0.300049,-0.200012l0,-1l0,-1l-0.300049,-0.200012l-0.199951,-0.299988l-0.199951,-0.299988l-0.300049,-0.200012l-0.300049,0.200012l-0.199951,0.299988l-1,0.5l-1,0.5l-0.199951,0.299988l-0.300049,0.200012l-0.300049,0.200012l-0.199951,0.299988l-0.199951,0.299988q-0.300049,0.200012 -3.300049,2.700012l-3,2.5l-0.5,-1.5q-0.5,-1.5 -1.5,-3.5q-1,-2 -3.699951,-4.799988q-2.800049,-2.700043 -11.800049,-2.700043q-9,0 -16.5,2.500031q-7.5,2.5 -13.5,4q-6,1.5 -16.5,4l-10.5,2.5l-1.5,-0.5l-1.5,-0.5l-1,-0.299988l-1,-0.200012l-0.200073,-1l-0.299927,-1l-0.300049,-0.200012l-0.199951,-0.299988l0.199951,-0.299988l0.300049,-0.200012l0.299927,-0.200012l0.200073,-0.299988l1.799927,-1.700012q1.700073,-1.799988 2.700073,-6.300018q1,-4.499969 1,-20.999969q0,-16.5 1.299927,-20q1.200073,-3.5 11.700073,-7.700012q10.5,-4.299988 16,-5.799988q5.5,-1.5 8.699951,-6.200012q3.300049,-4.799988 3.600098,-5.799988q0.199951,-1 2.699951,-0.200012q2.5,0.700012 2.5,-1.599976q0,-2.200012 2.199951,-3.200012q2.300049,-1 4,-4q1.800049,-3 6.300049,-4.200012q4.5,-1.299988 7,0.700012q2.5,2 3.5,2.5l1,0.5l0.199951,0.299988l0.300049,0.200012l0.300049,-0.200012l0.199951,-0.299988l0.199951,-0.299988l0.300049,-0.200012l0.300049,-0.200012l0.199951,-0.299988l1.5,-3.5q1.5,-3.5 2,-4.799988q0.5,-1.200012 6.5,-3.400024q6,-2.299988 7.5,-2.299988l1.5,0l2,0.5l2,0.5l1.5,0.5l1.5,0.5l1,0.5l1,0.5l0.199951,0.299988l0.300049,0.200012l0,0.5l0,0.5l-2,3q-2,3 -1.300049,6.200012q0.800049,3.299988 7,7.599976q6.300049,4.200012 6.600098,4.400024l0.199951,0.299988l0.199951,0.299988l0.300049,0.200012l0.300049,0.200012l0.199951,0.299988l0.199951,0.299988l0.300049,0.200012l0.300049,-0.200012l0.199951,-0.299988l1,-0.5l1,-0.5l0.199951,-0.299988l0.300049,-0.200012l0.300049,-0.200012l0.199951,-0.299988l0.199951,-0.299988l0.300049,-0.200012l0.5,-1q0.5,-1 2,-3q1.5,-2 2.5,-7q1,-5 2.699951,-10.5q1.800049,-5.5 2.800049,-5.5q1,0 2.199951,4.5q1.300049,4.5 4.300049,9q3,4.5 3,12q0,7.5 1.5,9q1.5,1.5 5.5,8q4,6.5 8.300049,13.299988q4.199951,6.700012 3.399902,15.400024q-0.699951,8.799988 -6.399902,17.799988q-5.800049,9 -7.800049,9.799988q-2,0.700012 -4.199951,3q-2.300049,2.200012 -5.600098,5.400024q-3.199951,3.299988 -7,8q-3.699951,4.799988 -7.399902,5q-3.800049,0.299988 -7.800049,2.799988q-4,2.5 -6.5,0.5q-2.5,-2 -5.5,-1q-3,1 -7.5,-1q-4.5,-2 -4.300049,-4.299988q0.300049,-2.200012 -0.399902,-7.200012q-0.800049,-5 -1.800049,-4.799988q-1,0.299988 -1.5,1.599976q-0.5,1.200012 -1.5,1z" stroke="#000000" fill-rule="evenodd" fill="#ffffff" id="svg_1"/>
 </g>

</svg>